<svg xmlns="http://www.w3.org/2000/svg" viewBox="0 0 1200 630" fill="none">
  <rect width="1200" height="630" fill="#0f172a"/>
  <rect x="40" y="40" width="1120" height="550" rx="12" fill="#1e293b"/>

  <!-- Header -->
  <rect x="40" y="40" width="1120" height="60" rx="12" fill="#334155"/>
  <circle cx="80" cy="70" r="12" fill="#22c55e"/>
  <rect x="105" y="60" width="180" height="20" rx="4" fill="#f8fafc"/>

  <!-- Token Budget Panel -->
  <rect x="60" y="120" width="400" height="200" rx="8" fill="#334155"/>
  <rect x="80" y="140" width="140" height="16" rx="2" fill="#f8fafc"/>

  <!-- Token usage bar -->
  <rect x="80" y="180" width="360" height="24" rx="12" fill="#1e293b"/>
  <rect x="80" y="180" width="216" height="24" rx="12" fill="#22c55e"/>

  <!-- Stats -->
  <rect x="80" y="220" width="80" height="12" rx="2" fill="#64748b"/>
  <rect x="80" y="240" width="120" height="20" rx="2" fill="#f8fafc"/>

  <rect x="220" y="220" width="80" height="12" rx="2" fill="#64748b"/>
  <rect x="220" y="240" width="100" height="20" rx="2" fill="#f8fafc"/>

  <rect x="80" y="280" width="80" height="12" rx="2" fill="#64748b"/>
  <rect x="80" y="300" width="90" height="16" rx="2" fill="#22c55e"/>

  <!-- Chat area -->
  <rect x="480" y="120" width="660" height="350" rx="8" fill="#1e293b"/>

  <!-- Messages -->
  <rect x="700" y="150" width="420" height="50" rx="12" fill="#3b82f6"/>
  <rect x="720" y="165" width="160" height="12" rx="2" fill="#93c5fd"/>

  <rect x="500" y="220" width="420" height="80" rx="12" fill="#334155"/>
  <rect x="520" y="240" width="280" height="12" rx="2" fill="#64748b"/>
  <rect x="520" y="260" width="320" height="12" rx="2" fill="#64748b"/>
  <rect x="520" y="280" width="200" height="12" rx="2" fill="#64748b"/>

  <rect x="800" y="320" width="320" height="40" rx="12" fill="#3b82f6"/>
  <rect x="820" y="332" width="140" height="12" rx="2" fill="#93c5fd"/>

  <rect x="500" y="380" width="360" height="60" rx="12" fill="#334155"/>
  <rect x="520" y="398" width="260" height="12" rx="2" fill="#64748b"/>
  <rect x="520" y="418" width="220" height="12" rx="2" fill="#64748b"/>

  <!-- KV Cache visualization -->
  <rect x="60" y="340" width="400" height="180" rx="8" fill="#334155"/>
  <rect x="80" y="360" width="120" height="14" rx="2" fill="#f8fafc"/>

  <!-- Cache blocks -->
  <rect x="80" y="390" width="40" height="40" rx="4" fill="#22c55e"/>
  <rect x="130" y="390" width="40" height="40" rx="4" fill="#22c55e"/>
  <rect x="180" y="390" width="40" height="40" rx="4" fill="#22c55e"/>
  <rect x="230" y="390" width="40" height="40" rx="4" fill="#22c55e"/>
  <rect x="280" y="390" width="40" height="40" rx="4" fill="#3b82f6"/>
  <rect x="330" y="390" width="40" height="40" rx="4" fill="#3b82f6"/>
  <rect x="380" y="390" width="40" height="40" rx="4" fill="#475569"/>

  <!-- Cache legend -->
  <rect x="80" y="450" width="12" height="12" rx="2" fill="#22c55e"/>
  <rect x="100" y="450" width="40" height="12" rx="2" fill="#64748b"/>
  <rect x="160" y="450" width="12" height="12" rx="2" fill="#3b82f6"/>
  <rect x="180" y="450" width="30" height="12" rx="2" fill="#64748b"/>
  <rect x="230" y="450" width="12" height="12" rx="2" fill="#475569"/>
  <rect x="250" y="450" width="40" height="12" rx="2" fill="#64748b"/>

  <!-- Input -->
  <rect x="500" y="490" width="620" height="45" rx="22" fill="#334155" stroke="#475569" stroke-width="2"/>

  <!-- Token Optimization label -->
  <text x="600" y="600" fill="#64748b" font-family="system-ui, sans-serif" font-size="14" text-anchor="middle">Token Optimization - Budget &amp; KV-Cache</text>
</svg>
